<?xml version="1.0" encoding="utf-8"?>
<!-- Generator: Adobe Illustrator 25.2.1, SVG Export Plug-In . SVG Version: 6.00 Build 0)  -->
<svg version="1.1" id="Layer_1" xmlns="http://www.w3.org/2000/svg" xmlns:xlink="http://www.w3.org/1999/xlink" x="0px" y="0px"
	 viewBox="0 0 311.8 311.8" style="enable-background:new 0 0 311.8 311.8;" xml:space="preserve">
<style type="text/css">
	.st0{fill:#FFFFFF;}
</style>
<path d="M0,0h311.8v311.8H0V0z"/>
<path class="st0" d="M199.85,295.6v-2.4h3.6l15-52.5h3.2l13.8,52.5h3v2.4h-18v-2.4h3.9l-3.5-14h-10.9l-3.9,14h5v2.4H199.85
	L199.85,295.6z M210.85,276.7h9.3l-4.5-17.7l-4.9,17.7H210.85z"/>
<path class="st0" d="M174.85,296.6l-14.1-53.5h-3.2v-2.4h18v2.4h-3.8l8.8,35l9.2-35h-5v-2.4h11.1v2.4h-3.6l-14.2,53.5H174.85z"/>
<path class="st0" d="M105.15,268.2c0-4.6,0.5-8.6,1.7-12.2s3.1-6.8,5.6-9.6c1.9-2.2,4-3.8,6.2-5s4.5-1.6,6.8-1.6
	c2.4,0,4.7,0.6,7,1.7s4.4,2.7,6.2,4.9c2.4,2.8,4.3,6,5.5,9.6c1.2,3.6,1.8,7.6,1.8,12.2s-0.6,8.6-1.8,12c-1.2,3.4-3,6.9-5.5,9.8
	c-1.9,2-4,3.7-6.2,4.9c-4.3051,2.3293-9.4949,2.3293-13.8,0c-2.364-1.26-4.4678-2.9566-6.2-5c-2.5-2.8-4.4-6-5.6-9.6
	s-1.8-7.6-1.8-12.1L105.15,268.2z M133.15,277.2v-18c0-6-0.6-10.4-1.8-13c-1.2-2.6-3.2-4.2-5.9-4.2c-2.7,0-4.6,1.4-5.8,4.1
	s-1.8,7-1.8,13v18c0,6.1,0.6,10.5,1.8,13.2s3.2,4,5.8,4c2.7,0,4.7-1.3,5.9-4C132.55,287.6,133.15,283.2,133.15,277.2z"/>
<path class="st0" d="M53.15,295.6v-2.4h4v-50.1h-4v-2.4h14.7l16.4,33.3v-31h-4.5v-2.3h11.4v2.4h-4.3v53.2h-3.3l-23.7-48.1v45h4.3
	v2.4L53.15,295.6L53.15,295.6z"/>
<path class="st0" d="M157.95,220.6v-2.4h3.6l15-52.5h3.2l13.8,52.5h3v2.4h-18v-2.4h3.9l-3.5-14h-10.9l-3.9,14h5v2.4H157.95z
	 M168.95,201.7h9.3l-4.5-17.7l-4.9,17.7H168.95z"/>
<path class="st0" d="M116.95,220.6v-2.4h5.6V168h-0.7c-2.7,0-4.8,1.1-6.4,3.5s-2.9,6.2-3.9,11.7h-2l0.5-17.5h36.4l0.4,17.5h-2
	c-1-5.6-2.3-9.5-3.9-11.8c-1.6-2.3-3.7-3.4-6.4-3.4h-0.6v50.2h5.6v2.4L116.95,220.6L116.95,220.6z"/>
<path class="st0" d="M237.75,146l-2.2-2.8c-2.5871,2.0854-5.7793,3.2781-9.1,3.4c-6,0-10.8-2.6-14.4-7.7s-5.4-11.8-5.4-20.1
	c0-4,0.4-7.7,1.3-11c0.8-3.2,2.1-6.1,3.9-8.8c2-3,4.2-5.3,6.6-6.9c2.5-1.5,5-2.3,7.7-2.3c1.6,0,3.2,0.3,4.8,1
	c1.7248,0.8555,3.3096,1.9682,4.7,3.3l2-3.8h1.5v15.4h-2c-0.6-4.3-1.9-7.7-3.7-10c-1.4731-2.2772-3.9881-3.6661-6.7-3.7
	c-2.4059-0.0851-4.6222,1.3001-5.6,3.5c-1.2,2.3-1.8,6-1.8,11.2v21.8c0,5.8,0.6,9.9,1.8,12.2c0.9958,2.2901,3.3059,3.7239,5.8,3.6
	c2.8,0,5.1-1.3,7-4c2.0846-3.1241,3.2932-6.75,3.5-10.5h2V146h-1.8H237.75z"/>
<path class="st0" d="M153.05,145.5v-2.3h3.6l15-52.5h3.2l13.8,52.5h3v2.3h-18v-2.3h4l-3.6-14h-10.9l-4,14h5v2.3h-11.2H153.05z
	 M164.05,126.7h9.3l-4.5-17.7l-4.9,17.7H164.05z"/>
<path class="st0" d="M110.25,145.5v-2.3h4V93h-4v-2.3h33.9l0.4,16h-2c-1-5.2-2.5-8.8-4.4-10.7c-2-2-5-3-9-3h-3.5v23.1
	c2.7,0,4.7-0.9,5.9-2.3c1.2-1.4,1.8-4,2-7.4h2V129h-1.9c-0.3-3.8-1-6.5-2.1-8.2c-1.1-1.6-2.9-2.4-5.2-2.4h-0.7v24.8h4.4v2.3H110.25z
	"/>
<path class="st0" d="M165.15,70.5V54h1.8c0.2798,4.0298,1.6637,7.9047,4,11.2c2,2.6,4.7,3.9,8,3.9c2.3,0,4.3-0.8,5.8-2.4
	c1.5777-1.5937,2.4434-3.7579,2.4-6c0-2-0.6-3.9-1.7-5.5c-2.3074-2.6582-5.0048-4.951-8-6.8c-3.8212-2.3752-7.1486-5.465-9.8-9.1
	c-1.7-2.8-2.5-6-2.5-9.8c0-4.4,1.2-8,3.6-10.6c2.3846-2.7318,5.8765-4.2389,9.5-4.1c1.6,0,3.2,0.2,4.7,0.8c1.5,0.6,3,1.5,4.7,2.7
	l1.8-2.9h1.8V30h-1.8c-1-4.3-2.4-7.6-4.4-9.8c-1.791-2.1827-4.4767-3.4336-7.3-3.4c-2,0-3.8,0.7-5.3,2
	c-1.4064,1.2731-2.1756,3.1045-2.1,5c0,3,3,6.5,9.2,10.6l3.6,2.6c3.0483,1.9788,5.5842,4.6519,7.4,7.8
	c1.598,3.1218,2.3887,6.5941,2.3,10.1c0,5-1.3,9-3.9,12c-2.6,3.1-5.9,4.7-10,4.7c-1.6,0-3.2-0.3-4.8-1s-3.2-1.5-5-2.8l-2,2.8h-2
	V70.5z"/>
<path class="st0" d="M110.75,70.5v-2.3h4V18h-4v-2.3h33.2l0.5,14h-2c-1-4.5-2.6-7.6-4.5-9.2c-1.9-1.7-5-2.5-9-2.5h-3v22.7
	c2.8,0,4.8-0.8,6-2.3s1.8-3.9,1.9-7.4h1.9v22.8h-2c0-4-0.7-6.8-1.9-8.3c-1.1-1.6-3.1-2.4-5.9-2.4v25.1h3c4.7,0,8.1-1.2,10.3-3.6
	c2.2-2.3,3.6-6.4,4.2-12.1h2.1l-0.7,18h-34L110.75,70.5z"/>
<path class="st0" d="M53.35,70.5v-2.3h4V18h-4v-2.3h16.4c7.5,0,13,1,16.6,3c3.4168,1.8139,5.4809,5.4358,5.3,9.3
	c0,3.8-1.5,6.8-4.5,9s-7.3,3.7-13,4.1v0.5c4.7,1,8.2,2.8,10.7,5.3c2.4,2.4,3.8,5.6,4.2,9.4l0.2,5.8c0,4,1,6.2,2.8,6.2
	c0.3353-0.01,0.6694-0.0434,1-0.1l0.6,2c-1.7435,0.5877-3.5617,0.9244-5.4,1c-2,0-3.8-0.4-5.2-1.1s-2.7-1.8-3.6-3.3
	c-1.4606-3.3716-2.1441-7.0285-2-10.7v-0.4c-0.3-5.4-1-9-2.3-10.7c-1.2-1.8-3.5-2.7-6.6-2.8v26h4v2.3h-19.3H53.35z M68.55,40h2.4
	c3,0,5.3-0.9,6.6-2.5c1.4-1.7,2-4.5,2-8.5s-0.6-6.7-1.8-8.4c-1.3-1.6-3.4-2.6-6.3-2.6h-3v22H68.55z"/>
</svg>
