<svg
	version="1.1"
	xmlns="http://www.w3.org/2000/svg"
	viewBox="0 0 237.5 311.8"
>
	<title>Res Facta Nova</title>
	<path d="M0 0h237.5v311.8H0z" />
	<path
		fill="#fff"
		d="M162.7 295.6v-2.4h3.6l15-52.5h3.2l13.8 52.5h3v2.4h-18v-2.4h3.9l-3.5-14h-10.9l-3.9 14h5v2.4h-11.2zm11-18.9h9.3l-4.5-17.7-4.9 17.7z"
	/>
	<path
		fill="#fff"
		d="m137.7 296.6-14.1-53.5h-3.2v-2.4h18v2.4h-3.8l8.8 35 9.2-35h-5v-2.4h11.1v2.4h-3.6l-14.2 53.5h-3.2z"
	/>
	<path
		fill="#fff"
		d="M68 268.2c0-4.6.5-8.6 1.7-12.2s3.1-6.8 5.6-9.6c1.9-2.2 4-3.8 6.2-5s4.5-1.6 6.8-1.6c2.4 0 4.7.6 7 1.7s4.4 2.7 6.2 4.9c2.4 2.8 4.3 6 5.5 9.6s1.8 7.6 1.8 12.2-.6 8.6-1.8 12-3 6.9-5.5 9.8c-1.9 2-4 3.7-6.2 4.9a14.5 14.5 0 0 1-13.8 0 21.2 21.2 0 0 1-6.2-5c-2.5-2.8-4.4-6-5.6-9.6s-1.8-7.6-1.8-12.1zm28 9v-18c0-6-.6-10.4-1.8-13S91 242 88.3 242s-4.6 1.4-5.8 4.1-1.8 7-1.8 13v18c0 6.1.6 10.5 1.8 13.2s3.2 4 5.8 4c2.7 0 4.7-1.3 5.9-4s1.8-7.1 1.8-13.1z"
	/>
	<path
		fill="#fff"
		d="M16 295.6v-2.4h4v-50.1h-4v-2.4h14.7L47.1 274v-31h-4.5v-2.3H54v2.4h-4.3v53.2h-3.3l-23.7-48.1v45H27v2.4H16z"
	/>
	<path
		fill="#fff"
		d="M120.8 220.6v-2.4h3.6l15-52.5h3.2l13.8 52.5h3v2.4h-18v-2.4h3.9l-3.5-14h-10.9l-3.9 14h5v2.4h-11.2zm11-18.9h9.3l-4.5-17.7-4.9 17.7z"
	/>
	<path
		fill="#fff"
		d="M79.8 220.6v-2.4h5.6V168h-.7c-2.7 0-4.8 1.1-6.4 3.5s-2.9 6.2-3.9 11.7h-2l.5-17.5h36.4l.4 17.5h-2c-1-5.6-2.3-9.5-3.9-11.8s-3.7-3.4-6.4-3.4h-.6v50.2h5.6v2.4H79.8z"
	/>
	<path
		fill="#fff"
		d="m200.6 146-2.2-2.8a15.4 15.4 0 0 1-9.1 3.4c-6 0-10.8-2.6-14.4-7.7s-5.4-11.8-5.4-20.1c0-4 .4-7.7 1.3-11 .8-3.2 2.1-6.1 3.9-8.8 2-3 4.2-5.3 6.6-6.9 2.5-1.5 5-2.3 7.7-2.3 1.6 0 3.2.3 4.8 1a19 19 0 0 1 4.7 3.3l2-3.8h1.5v15.4H200c-.6-4.3-1.9-7.7-3.7-10a8.1 8.1 0 0 0-6.7-3.7 5.9 5.9 0 0 0-5.6 3.5c-1.2 2.3-1.8 6-1.8 11.2v21.8c0 5.8.6 9.9 1.8 12.2a6 6 0 0 0 5.8 3.6c2.8 0 5.1-1.3 7-4a21 21 0 0 0 3.5-10.5h2V146h-1.8z"
	/>
	<path
		fill="#fff"
		d="M115.9 145.5v-2.3h3.6l15-52.5h3.2l13.8 52.5h3v2.3h-18v-2.3h4l-3.6-14H126l-4 14h5v2.3h-11.2zm11-18.8h9.3l-4.5-17.7-4.9 17.7z"
	/>
	<path
		fill="#fff"
		d="M73.1 145.5v-2.3h4V93h-4v-2.3H107l.4 16h-2c-1-5.2-2.5-8.8-4.4-10.7-2-2-5-3-9-3h-3.5v23.1c2.7 0 4.7-.9 5.9-2.3 1.2-1.4 1.8-4 2-7.4h2V129h-1.9c-.3-3.8-1-6.5-2.1-8.2-1.1-1.6-2.9-2.4-5.2-2.4h-.7v24.8h4.4v2.3H73.1z"
	/>
	<path
		fill="#fff"
		d="M128 70.5V54h1.8a22 22 0 0 0 4 11.2c2 2.6 4.7 3.9 8 3.9 2.3 0 4.3-.8 5.8-2.4a8.3 8.3 0 0 0 2.4-6c0-2-.6-3.9-1.7-5.5a34.8 34.8 0 0 0-8-6.8 35 35 0 0 1-9.8-9.1c-1.7-2.8-2.5-6-2.5-9.8 0-4.4 1.2-8 3.6-10.6a12 12 0 0 1 9.5-4.1c1.6 0 3.2.2 4.7.8s3 1.5 4.7 2.7l1.8-2.9h1.8V30h-1.8c-1-4.3-2.4-7.6-4.4-9.8a9.3 9.3 0 0 0-7.3-3.4c-2 0-3.8.7-5.3 2a6.4 6.4 0 0 0-2.1 5c0 3 3 6.5 9.2 10.6L146 37a23 23 0 0 1 7.4 7.8 21 21 0 0 1 2.3 10.1c0 5-1.3 9-3.9 12-2.6 3.1-5.9 4.7-10 4.7-1.6 0-3.2-.3-4.8-1s-3.2-1.5-5-2.8l-2 2.8h-2z"
	/>
	<path
		fill="#fff"
		d="M73.6 70.5v-2.3h4V18h-4v-2.3h33.2l.5 14h-2c-1-4.5-2.6-7.6-4.5-9.2-1.9-1.7-5-2.5-9-2.5h-3v22.7c2.8 0 4.8-.8 6-2.3s1.8-3.9 1.9-7.4h1.9v22.8h-2c0-4-.7-6.8-1.9-8.3-1.1-1.6-3.1-2.4-5.9-2.4v25.1h3c4.7 0 8.1-1.2 10.3-3.6 2.2-2.3 3.6-6.4 4.2-12.1h2.1l-.7 18h-34z"
	/>
	<path
		fill="#fff"
		d="M16.2 70.5v-2.3h4V18h-4v-2.3h16.4c7.5 0 13 1 16.6 3a10 10 0 0 1 5.3 9.3c0 3.8-1.5 6.8-4.5 9s-7.3 3.7-13 4.1v.5c4.7 1 8.2 2.8 10.7 5.3 2.4 2.4 3.8 5.6 4.2 9.4l.2 5.8c0 4 1 6.2 2.8 6.2a7.2 7.2 0 0 0 1-.1l.6 2a19.4 19.4 0 0 1-5.4 1c-2 0-3.8-.4-5.2-1.1s-2.7-1.8-3.6-3.3a24.5 24.5 0 0 1-2-10.7v-.4c-.3-5.4-1-9-2.3-10.7-1.2-1.8-3.5-2.7-6.6-2.8v26h4v2.3H16.1zM31.4 40h2.4c3 0 5.3-.9 6.6-2.5 1.4-1.7 2-4.5 2-8.5s-.6-6.7-1.8-8.4C39.3 19 37.2 18 34.3 18h-3V40z"
	/>
</svg>
