<?xml version="1.0" standalone="no"?>
<!DOCTYPE svg PUBLIC "-//W3C//DTD SVG 20010904//EN"
 "http://www.w3.org/TR/2001/REC-SVG-20010904/DTD/svg10.dtd">
<svg version="1.0" xmlns="http://www.w3.org/2000/svg"
 width="700.000000pt" height="700.000000pt" viewBox="0 0 700.000000 700.000000"
 preserveAspectRatio="xMidYMid meet">
<metadata>
Created by potrace 1.14, written by Peter Selinger 2001-2017
</metadata>
<g transform="translate(0.000000,700.000000) scale(0.100000,-0.100000)"
fill="#000000" stroke="none">
<path d="M0 3500 l0 -3500 3500 0 3500 0 0 3500 0 3500 -3500 0 -3500 0 0
-3500z m4084 3156 c27 -8 66 -27 88 -41 43 -28 42 -28 69 18 5 9 19 17 29 17
19 0 20 -8 20 -160 0 -149 -1 -160 -18 -160 -14 0 -23 14 -35 58 -38 134 -121
222 -221 230 -70 6 -118 -11 -156 -54 -25 -29 -30 -43 -30 -85 0 -27 6 -62 14
-77 22 -41 110 -121 228 -205 58 -43 125 -98 147 -123 87 -99 124 -233 104
-373 -28 -190 -139 -304 -298 -305 -63 -1 -80 3 -150 38 l-78 39 -26 -32 c-14
-17 -34 -31 -43 -31 -17 0 -18 16 -18 190 0 180 1 190 19 190 15 0 20 -10 26
-47 11 -73 53 -168 96 -217 126 -142 350 -72 349 109 0 27 -9 68 -19 90 -22
49 -102 125 -202 192 -106 72 -196 165 -231 241 -55 116 -48 285 15 379 76
112 196 156 321 119z m-2373 -16 c240 -28 345 -110 343 -270 -1 -146 -103
-240 -298 -278 -47 -10 -86 -20 -86 -23 0 -4 15 -10 34 -13 57 -11 153 -65
200 -113 67 -67 87 -129 96 -290 8 -145 21 -183 64 -183 21 0 36 -16 36 -40 0
-15 -110 -32 -158 -25 -141 21 -184 91 -203 325 -12 149 -32 236 -62 269 -26
28 -76 51 -112 51 l-25 0 0 -290 0 -290 45 0 c41 0 45 -2 45 -25 l0 -25 -215
0 -215 0 0 25 c0 23 4 25 45 25 l45 0 0 565 0 565 -45 0 c-41 0 -45 2 -45 25
l0 25 213 0 c116 0 251 -5 298 -10z m1523 -51 c3 -34 6 -107 6 -161 0 -96 -1
-99 -21 -96 -16 2 -26 17 -39 60 -44 143 -107 191 -271 204 l-79 7 0 -258 0
-258 40 6 c78 10 114 52 128 149 6 44 11 54 30 56 l22 3 0 -255 0 -256 -24 0
c-21 0 -24 5 -28 65 -3 35 -14 81 -25 101 -21 41 -73 74 -115 74 l-28 0 0
-280 0 -280 60 0 c143 0 223 43 277 147 17 34 37 94 44 133 11 62 15 70 34 70
22 0 22 -3 18 -97 -2 -54 -6 -144 -9 -200 l-6 -103 -379 0 -379 0 0 25 c0 23
4 25 45 25 l45 0 -2 563 -3 562 -42 3 c-38 3 -43 6 -43 28 l0 24 369 0 368 0
7 -61z m1962 -1635 c27 -14 58 -34 70 -45 11 -10 23 -19 26 -19 3 0 13 18 23
40 12 26 25 40 37 40 17 0 18 -11 18 -170 l0 -170 -25 0 c-20 0 -25 5 -25 23
0 30 -33 127 -56 164 -50 79 -100 113 -169 113 -69 0 -102 -22 -133 -88 l-27
-57 -3 -408 c-3 -347 -1 -417 13 -470 9 -34 23 -72 31 -85 35 -54 115 -76 181
-51 70 26 134 122 163 244 14 56 21 70 36 70 18 0 19 -11 22 -182 2 -175 2
-183 -17 -183 -11 0 -31 14 -45 31 l-27 31 -62 -33 c-57 -31 -69 -34 -152 -34
-82 0 -97 3 -157 33 -121 59 -211 188 -254 362 -28 110 -25 354 4 463 28 103
84 207 150 278 88 95 155 128 263 129 52 0 76 -5 115 -26z m-1956 -131 c0 -76
3 -155 6 -175 5 -30 3 -39 -10 -44 -24 -9 -34 4 -51 69 -44 170 -111 227 -272
235 l-93 4 0 -261 c0 -143 3 -261 8 -261 29 0 92 26 114 48 29 27 42 59 53
130 5 32 11 42 26 42 18 0 19 -11 19 -255 0 -242 -1 -255 -19 -255 -14 0 -20
12 -28 63 -21 122 -64 177 -140 177 l-33 0 0 -275 0 -275 50 0 c49 0 50 -1 50
-30 l0 -30 -220 0 -220 0 0 30 c0 29 2 30 45 30 l45 0 0 560 0 560 -45 0 c-41
0 -45 2 -45 25 l0 25 380 0 380 0 0 -137z m690 131 c0 -3 68 -263 150 -579 83
-315 150 -576 150 -579 0 -3 16 -6 35 -6 32 0 35 -2 35 -30 l0 -30 -200 0
-200 0 0 30 c0 28 2 30 40 30 22 0 40 5 40 10 0 6 -16 76 -36 155 l-36 145
-124 0 -123 0 -10 -37 c-6 -21 -26 -91 -45 -155 l-34 -118 54 0 c53 0 54 0 54
-30 l0 -31 -122 3 -123 3 0 25 c0 22 5 25 42 28 41 3 43 5 56 50 8 26 83 289
168 585 l153 537 38 0 c21 0 38 -3 38 -6z m-640 -1846 c0 -95 3 -183 6 -195 5
-19 2 -23 -19 -23 -23 0 -26 7 -46 87 -40 159 -97 235 -186 250 l-35 6 0 -567
0 -566 60 0 c57 0 60 -1 60 -25 l0 -25 -250 0 -250 0 0 25 c0 24 3 25 60 25
l60 0 0 565 0 565 -22 0 c-31 -1 -99 -33 -120 -56 -27 -31 -66 -124 -86 -205
-15 -62 -22 -75 -40 -77 -21 -3 -22 0 -22 71 0 41 3 129 7 195 l6 122 409 0
408 0 0 -172z m900 -418 l154 -590 33 0 c29 0 33 -3 33 -25 l0 -25 -200 0
-200 0 0 24 c0 22 5 25 44 28 l43 3 -41 155 -41 155 -117 3 c-104 2 -118 1
-126 -15 -11 -20 -82 -274 -82 -292 0 -7 21 -11 55 -11 52 0 55 -1 55 -25 l0
-25 -125 0 -125 0 0 25 c0 22 4 25 38 25 l38 0 168 590 169 590 36 0 36 0 155
-590z m-1243 -1102 c138 -51 254 -202 304 -396 28 -109 28 -316 0 -425 -46
-177 -155 -323 -289 -389 -59 -29 -76 -33 -147 -33 -97 1 -144 20 -231 93
-110 91 -184 225 -215 390 -15 78 -6 280 16 370 38 157 167 328 293 388 77 36
174 37 269 2z m-1242 -360 l185 -373 0 342 0 342 -47 3 c-44 3 -48 5 -51 31
l-3 28 128 -3 128 -3 3 -27 c3 -27 2 -28 -47 -28 l-51 0 0 -595 0 -595 -36 0
-35 0 -264 533 -264 532 0 -497 -1 -498 45 0 c43 0 45 -1 45 -30 l0 -31 -122
3 -123 3 -3 27 c-3 27 -2 28 42 28 l46 0 0 560 0 560 -45 0 c-40 0 -45 2 -45
23 0 13 3 27 7 30 3 4 78 7 165 7 l159 0 184 -372z m2235 342 c0 -28 -2 -30
-40 -30 -22 0 -40 -2 -40 -5 0 -11 181 -731 188 -748 5 -13 40 104 106 355 55
205 101 379 104 386 3 9 -11 12 -52 12 -56 0 -56 0 -56 30 l0 31 123 -3 122
-3 0 -25 c0 -22 -5 -25 -40 -28 l-41 -3 -139 -527 c-76 -290 -147 -560 -158
-599 l-19 -73 -37 0 -37 0 -144 553 c-189 723 -164 647 -206 647 -31 0 -34 3
-34 30 l0 30 200 0 200 0 0 -30z m1190 -562 l154 -588 33 0 c30 0 33 -3 33
-30 l0 -30 -200 0 -200 0 0 29 c0 28 3 30 43 33 l44 3 -40 153 -40 152 -122 0
-122 0 -38 -137 c-21 -76 -40 -146 -42 -155 -5 -16 2 -18 51 -18 56 0 56 0 56
-30 l0 -30 -125 0 -125 0 0 30 c0 28 2 30 39 30 l38 0 163 573 c90 314 167
580 172 590 7 13 18 17 41 15 l32 -3 155 -587z"/>
<path d="M1540 6350 l0 -253 65 5 c84 7 124 31 155 93 21 43 24 63 24 155 0
92 -3 112 -24 155 -31 62 -68 84 -154 92 l-66 6 0 -253z"/>
<path d="M3786 4530 c-3 -8 -28 -94 -55 -190 l-49 -175 100 -3 c55 -1 102 -1
105 1 2 3 -19 89 -46 193 -27 104 -51 182 -55 174z"/>
<path d="M3882 2795 c-11 -38 -35 -119 -52 -180 -17 -60 -33 -118 -36 -127 -5
-16 4 -18 101 -18 l105 0 -7 28 c-3 15 -25 104 -48 197 l-42 170 -21 -70z"/>
<path d="M2760 1552 c-39 -19 -75 -67 -90 -121 -35 -118 -38 -734 -4 -880 26
-115 92 -172 179 -155 57 10 99 59 121 140 17 62 19 107 19 449 0 334 -2 387
-18 437 -20 66 -58 115 -104 134 -43 18 -61 18 -103 -4z"/>
<path d="M4836 1160 c-3 -8 -28 -94 -55 -190 l-49 -175 100 -3 c55 -1 102 -1
104 0 2 3 -81 348 -90 373 -2 6 -6 3 -10 -5z"/>
</g>
</svg>
